<svg width="113" height="113" viewBox="0 0 113 113" fill="none" xmlns="http://www.w3.org/2000/svg">
<path d="M56.4892 106.756C49.8783 106.756 43.3321 105.454 37.2244 102.924C31.1168 100.394 25.5672 96.6859 20.8926 92.0112C16.2179 87.3366 12.5098 81.787 9.97994 75.6794C7.45005 69.5717 6.14794 63.0255 6.14794 56.4146C6.14794 49.8037 7.45005 43.2575 9.97994 37.1498C12.5098 31.0421 16.2179 25.4925 20.8926 20.8179C25.5672 16.1433 31.1168 12.4352 37.2245 9.90528C43.3321 7.3754 49.8783 6.07328 56.4892 6.07328C63.1001 6.07328 69.6463 7.3754 75.754 9.90529C81.8617 12.4352 87.4113 16.1433 92.0859 20.8179C96.7605 25.4925 100.469 31.0421 102.999 37.1498C105.528 43.2575 106.831 49.8037 106.831 56.4146C106.831 63.0255 105.528 69.5717 102.999 75.6794C100.469 81.787 96.7605 87.3366 92.0859 92.0113C87.4113 96.6859 81.8617 100.394 75.754 102.924C69.6463 105.454 63.1001 106.756 56.4892 106.756L56.4892 106.756Z" stroke="#B9F8C3" stroke-width="11.9229"/>
</svg>
